<svg xmlns="http://www.w3.org/2000/svg" viewBox="0 0 300 300">
  <defs>
    <path id="text-arc-top" d="M 60,150 A 90,90 0 0,1 240,150"></path>
    <path id="text-arc-bot" d="M 60,150 A 90,90 0 0,0 240,150"></path>
  </defs>

  
  <circle cx="150" cy="150" r="150" fill="#FCF8F2"></circle>

  
  
  <path d="M 35,140 A 115,115 0 0,1 265,140" stroke="#E3B755" stroke-width="1" fill="none"></path>
  
  <path d="M 35,160 A 115,115 0 0,0 265,160" stroke="#E3B755" stroke-width="1" fill="none"></path>

  
  <text x="25" y="154" font-size="14" fill="#E3B755" text-anchor="middle">♥</text>
  <text x="275" y="154" font-size="14" fill="#E3B755" text-anchor="middle">♥</text>

  
  <path d="M 110,120 Q 150,80 180,110 T 190,160 Q 160,190 120,180 T 100,140 Z" fill="#F4D392" opacity="0.4"></path>
  <circle cx="160" cy="160" r="40" fill="#EDBE65" opacity="0.3"></circle>
  <circle cx="120" cy="130" r="30" fill="#EDBE65" opacity="0.2"></circle>

  
  
  <line x1="75" y1="195" x2="225" y2="195" stroke="#4A453F" stroke-width="1"></line>
  <line x1="70" y1="198" x2="230" y2="198" stroke="#4A453F" stroke-width="0.5"></line>

  
  <path d="M 95,195 L 95,125" stroke="#4A453F" stroke-width="1.5" fill="none"></path>
  
  <path d="M 95,125 Q 85,135 90,145 Q 80,155 90,165 Q 85,175 95,185 Q 105,175 100,165 Q 110,155 100,145 Q 105,135 95,125 Z" stroke="#4A453F" stroke-width="1" fill="none"></path>
  <path d="M 95,125 L 90,135 M 95,145 L 85,150 M 95,165 L 100,175" stroke="#4A453F" stroke-width="0.5" fill="none"></path>

  
  
  <rect x="115" y="160" width="30" height="35" stroke="#4A453F" stroke-width="1" fill="none"></rect>
  <line x1="115" y1="160" x2="145" y2="160" stroke="#4A453F" stroke-width="1.5"></line>
  <line x1="125" y1="160" x2="125" y2="195" stroke="#4A453F" stroke-width="0.8"></line>
  <line x1="135" y1="160" x2="135" y2="195" stroke="#4A453F" stroke-width="0.8"></line>

  
  <rect x="145" y="130" width="40" height="65" stroke="#4A453F" stroke-width="1" fill="none"></rect>
  <line x1="155" y1="130" x2="155" y2="195" stroke="#4A453F" stroke-width="0.8"></line>
  <line x1="165" y1="130" x2="165" y2="195" stroke="#4A453F" stroke-width="0.8"></line>
  <line x1="175" y1="130" x2="175" y2="195" stroke="#4A453F" stroke-width="0.8"></line>

  
  <rect x="185" y="150" width="30" height="45" stroke="#4A453F" stroke-width="1" fill="none"></rect>
  <line x1="195" y1="150" x2="195" y2="195" stroke="#4A453F" stroke-width="0.8"></line>
  <line x1="205" y1="150" x2="205" y2="195" stroke="#4A453F" stroke-width="0.8"></line>

  
  <line x1="135" y1="120" x2="195" y2="110" stroke="#4A453F" stroke-width="1.5"></line>
  <line x1="145" y1="130" x2="145" y2="118" stroke="#4A453F" stroke-width="1"></line>
  <line x1="185" y1="130" x2="185" y2="112" stroke="#4A453F" stroke-width="1"></line>
  
  <line x1="130" y1="140" x2="210" y2="135" stroke="#4A453F" stroke-width="1"></line>

  
  <path d="M 120,195 Q 115,185 125,185 Q 130,190 125,195" stroke="#4A453F" stroke-width="0.8" fill="none"></path>
  <path d="M 190,195 Q 185,180 195,185 Q 200,195 190,195" stroke="#4A453F" stroke-width="0.8" fill="none"></path>
  
  
  <line x1="110" y1="160" x2="150" y2="160" stroke="#4A453F" stroke-width="0.5"></line>
  <line x1="140" y1="130" x2="190" y2="130" stroke="#4A453F" stroke-width="0.5"></line>
  <line x1="180" y1="150" x2="220" y2="150" stroke="#4A453F" stroke-width="0.5"></line>
  <line x1="145" y1="125" x2="145" y2="200" stroke="#4A453F" stroke-width="0.5"></line>
  <line x1="185" y1="145" x2="185" y2="200" stroke="#4A453F" stroke-width="0.5"></line>

  
  <text font-family="&#39;Cormorant Garamond&#39;, serif" font-size="28" font-weight="600" letter-spacing="12" fill="#3D3730">
    <textPath href="#text-arc-top" startOffset="50%" text-anchor="middle">ROSETTO</textPath>
  </text>
  
  <text font-family="&#39;Montserrat&#39;, sans-serif" font-size="14" font-weight="500" letter-spacing="8" fill="#E3B755">
    <textPath href="#text-arc-bot" startOffset="50%" text-anchor="middle">ARQUITETURA</textPath>
  </text>

</svg>